<svg xmlns="http://www.w3.org/2000/svg" viewBox="0 0 64 54"><defs><style>.cls-1{fill:#0a3d52;}.cls-2{fill:#76bc1d;}</style></defs><title>Element 9</title><g id="Ebene_2" data-name="Ebene 2"><g id="Layer_1" data-name="Layer 1"><path class="cls-1" d="M36,34a1,1,0,0,1-.71-.29L32,30.41l-3.29,3.3a1,1,0,0,1-1.42-1.42l4-4a1,1,0,0,1,1.42,0l4,4a1,1,0,0,1,0,1.42A1,1,0,0,1,36,34Z"/><path class="cls-1" d="M33,53H31V48a8,8,0,0,1,8-8H51A11,11,0,0,0,62,29c0-5.7-3.87-10-9-10H52V18c0-3.87-2.1-8-8-8H42.41l-.28-.52A14.73,14.73,0,0,0,29,2,15,15,0,0,0,14,17v1H13a11,11,0,0,0,0,22H25a6,6,0,0,0,6-6V29h2v5a8,8,0,0,1-8,8H13a13,13,0,0,1-1-26A17,17,0,0,1,29,0,16.71,16.71,0,0,1,43.58,8H44c5.75,0,9.57,3.52,10,9,5.78.5,10,5.47,10,12A13,13,0,0,1,51,42H39a6,6,0,0,0-6,6Z"/><path class="cls-1" d="M32,54a1,1,0,0,1-.71-.29l-4-4a1,1,0,0,1,1.42-1.42L32,51.59l3.29-3.3a1,1,0,0,1,1.42,1.42l-4,4A1,1,0,0,1,32,54Z"/><path class="cls-2" d="M20,18H18c0-6.39,5.14-12,11-12V8C24.75,8,20,12.28,20,18Z"/></g></g></svg>